  0
SECTION
  2
HEADER
  9
$EXTMIN
 10
-39.27
 20
-42.56
  9
$EXTMAX
 10
89.27
 20
94.57
  9
$LIMMIN
 10
-39.27
 20
-42.56
  9
$LIMMAX
 10
89.27
 20
94.57
  0
ENDSEC
  0
SECTION
  2
TABLES
  0
TABLE
  2
LAYER
 70
    18
  0
LAYER
  2
0
 70
    64
 62
     7
  6
CONTINUOUS
  0
LAYER
  2
_BOARD
 70
    64
 62
    254
  6
CONTINUOUS
  0
LAYER
  2
_DRILL
 70
    64
 62
    251
  6
CONTINUOUS
  0
ENDTAB
  0
ENDSEC
  0
SECTION
  2
BLOCKS
  0
BLOCK
  8
0
  2
_HOLE
 70
    64
 10
0.00
 20
0.00
  0
CIRCLE
  8
0
 10
0.00
 20
0.00
 40
0.500
  0
ENDBLK
  8
0
  0
ENDSEC
  0
SECTION
  2
ENTITIES
  0
POLYLINE
  8
_BOARD
 66
     1
 62
     3
 10
0.00
 20
0.00
 70
     1
 40
0.00
 41
0.00
  0
VERTEX
  8
_BOARD
 10
64.00
 20
89.50
 40
0.00
 41
0.00
 42
1.000
  0
VERTEX
  8
_BOARD
 10
67.00
 20
89.50
  0
VERTEX
  8
_BOARD
 10
67.00
 20
89.50
 40
0.00
 41
0.00
 42
1.000
  0
VERTEX
  8
_BOARD
 10
64.00
 20
89.50
 40
0.00
 41
0.00
  0
VERTEX
  8
_BOARD
 10
64.00
 20
89.50
  0
SEQEND
  8
_BOARD
  0
POLYLINE
  8
_BOARD
 66
     1
 62
     3
 10
0.00
 20
0.00
 70
     1
 40
0.00
 41
0.00
  0
VERTEX
  8
_BOARD
 10
38.50
 20
35.00
 40
0.00
 41
0.00
 42
1.000
  0
VERTEX
  8
_BOARD
 10
41.50
 20
35.00
  0
VERTEX
  8
_BOARD
 10
41.50
 20
35.00
 40
0.00
 41
0.00
 42
1.000
  0
VERTEX
  8
_BOARD
 10
38.50
 20
35.00
 40
0.00
 41
0.00
  0
VERTEX
  8
_BOARD
 10
38.50
 20
35.00
  0
SEQEND
  8
_BOARD
  0
POLYLINE
  8
_BOARD
 66
     1
 62
     3
 10
0.00
 20
0.00
 70
     1
 40
0.00
 41
0.00
  0
VERTEX
  8
_BOARD
 10
23.10
 20
86.29
 40
0.00
 41
0.00
 42
1.000
  0
VERTEX
  8
_BOARD
 10
26.10
 20
86.29
  0
VERTEX
  8
_BOARD
 10
26.10
 20
86.29
 40
0.00
 41
0.00
 42
1.000
  0
VERTEX
  8
_BOARD
 10
23.10
 20
86.29
 40
0.00
 41
0.00
  0
VERTEX
  8
_BOARD
 10
23.10
 20
86.29
  0
SEQEND
  8
_BOARD
  0
POLYLINE
  8
_BOARD
 66
     1
 62
     3
 10
0.00
 20
0.00
 70
     1
 40
0.00
 41
0.00
  0
VERTEX
  8
_BOARD
 10
73.90
 20
86.29
 40
0.00
 41
0.00
 42
1.000
  0
VERTEX
  8
_BOARD
 10
76.90
 20
86.29
  0
VERTEX
  8
_BOARD
 10
76.90
 20
86.29
 40
0.00
 41
0.00
 42
1.000
  0
VERTEX
  8
_BOARD
 10
73.90
 20
86.29
 40
0.00
 41
0.00
  0
VERTEX
  8
_BOARD
 10
73.90
 20
86.29
  0
SEQEND
  8
_BOARD
  0
POLYLINE
  8
_BOARD
 66
     1
 62
     3
 10
0.00
 20
0.00
 70
     1
 40
0.00
 41
0.00
  0
VERTEX
  8
_BOARD
 10
73.90
 20
17.71
 40
0.00
 41
0.00
 42
1.000
  0
VERTEX
  8
_BOARD
 10
76.90
 20
17.71
  0
VERTEX
  8
_BOARD
 10
76.90
 20
17.71
 40
0.00
 41
0.00
 42
1.000
  0
VERTEX
  8
_BOARD
 10
73.90
 20
17.71
 40
0.00
 41
0.00
  0
VERTEX
  8
_BOARD
 10
73.90
 20
17.71
  0
SEQEND
  8
_BOARD
  0
POLYLINE
  8
_BOARD
 66
     1
 62
     3
 10
0.00
 20
0.00
 70
     1
 40
0.00
 41
0.00
  0
VERTEX
  8
_BOARD
 10
23.10
 20
17.71
 40
0.00
 41
0.00
 42
1.000
  0
VERTEX
  8
_BOARD
 10
26.10
 20
17.71
  0
VERTEX
  8
_BOARD
 10
26.10
 20
17.71
 40
0.00
 41
0.00
 42
1.000
  0
VERTEX
  8
_BOARD
 10
23.10
 20
17.71
 40
0.00
 41
0.00
  0
VERTEX
  8
_BOARD
 10
23.10
 20
17.71
  0
SEQEND
  8
_BOARD
  0
POLYLINE
  8
_BOARD
 66
     1
 62
     3
 10
0.00
 20
0.00
 70
     1
 40
0.00
 41
0.00
  0
VERTEX
  8
_BOARD
 10
82.71
 20
89.50
 40
0.00
 41
0.00
 42
1.000
  0
VERTEX
  8
_BOARD
 10
85.71
 20
89.50
  0
VERTEX
  8
_BOARD
 10
85.71
 20
89.50
 40
0.00
 41
0.00
 42
1.000
  0
VERTEX
  8
_BOARD
 10
82.71
 20
89.50
 40
0.00
 41
0.00
  0
VERTEX
  8
_BOARD
 10
82.71
 20
89.50
  0
SEQEND
  8
_BOARD
  0
POLYLINE
  8
_BOARD
 66
     1
 62
     3
 10
0.00
 20
0.00
 70
     1
 40
0.00
 41
0.00
  0
VERTEX
  8
_BOARD
 10
14.29
 20
89.50
 40
0.00
 41
0.00
 42
1.000
  0
VERTEX
  8
_BOARD
 10
17.29
 20
89.50
  0
VERTEX
  8
_BOARD
 10
17.29
 20
89.50
 40
0.00
 41
0.00
 42
1.000
  0
VERTEX
  8
_BOARD
 10
14.29
 20
89.50
 40
0.00
 41
0.00
  0
VERTEX
  8
_BOARD
 10
14.29
 20
89.50
  0
SEQEND
  8
_BOARD
  0
POLYLINE
  8
_BOARD
 66
     1
 62
     3
 10
0.00
 20
0.00
 70
     1
 40
0.00
 41
0.00
  0
VERTEX
  8
_BOARD
 10
14.29
 20
14.50
 40
0.00
 41
0.00
 42
1.000
  0
VERTEX
  8
_BOARD
 10
17.29
 20
14.50
  0
VERTEX
  8
_BOARD
 10
17.29
 20
14.50
 40
0.00
 41
0.00
 42
1.000
  0
VERTEX
  8
_BOARD
 10
14.29
 20
14.50
 40
0.00
 41
0.00
  0
VERTEX
  8
_BOARD
 10
14.29
 20
14.50
  0
SEQEND
  8
_BOARD
  0
POLYLINE
  8
_BOARD
 66
     1
 62
     3
 10
0.00
 20
0.00
 70
     1
 40
0.00
 41
0.00
  0
VERTEX
  8
_BOARD
 10
82.71
 20
14.50
 40
0.00
 41
0.00
 42
1.000
  0
VERTEX
  8
_BOARD
 10
85.71
 20
14.50
  0
VERTEX
  8
_BOARD
 10
85.71
 20
14.50
 40
0.00
 41
0.00
 42
1.000
  0
VERTEX
  8
_BOARD
 10
82.71
 20
14.50
 40
0.00
 41
0.00
  0
VERTEX
  8
_BOARD
 10
82.71
 20
14.50
  0
SEQEND
  8
_BOARD
  0
POLYLINE
  8
_BOARD
 66
     1
 62
     3
 10
0.00
 20
0.00
 70
     1
 40
0.00
 41
0.00
  0
VERTEX
  8
_BOARD
 10
42.00
 20
78.50
 40
0.00
 41
0.00
  0
VERTEX
  8
_BOARD
 10
37.00
 20
78.50
  0
VERTEX
  8
_BOARD
 10
37.00
 20
78.50
 40
0.00
 41
0.00
 42
0.414
  0
VERTEX
  8
_BOARD
 10
35.00
 20
76.50
  0
VERTEX
  8
_BOARD
 10
35.00
 20
76.50
 40
0.00
 41
0.00
  0
VERTEX
  8
_BOARD
 10
35.00
 20
68.50
  0
VERTEX
  8
_BOARD
 10
35.00
 20
68.50
 40
0.00
 41
0.00
 42
0.414
  0
VERTEX
  8
_BOARD
 10
37.00
 20
66.50
  0
VERTEX
  8
_BOARD
 10
37.00
 20
66.50
 40
0.00
 41
0.00
  0
VERTEX
  8
_BOARD
 10
42.00
 20
66.50
  0
VERTEX
  8
_BOARD
 10
42.00
 20
66.50
 40
0.00
 41
0.00
 42
0.414
  0
VERTEX
  8
_BOARD
 10
44.00
 20
68.50
  0
VERTEX
  8
_BOARD
 10
44.00
 20
68.50
 40
0.00
 41
0.00
  0
VERTEX
  8
_BOARD
 10
44.00
 20
76.50
  0
VERTEX
  8
_BOARD
 10
44.00
 20
76.50
 40
0.00
 41
0.00
 42
0.414
  0
VERTEX
  8
_BOARD
 10
42.00
 20
78.50
 40
0.00
 41
0.00
  0
VERTEX
  8
_BOARD
 10
42.00
 20
78.50
  0
SEQEND
  8
_BOARD
  0
POLYLINE
  8
_BOARD
 66
     1
 62
     3
 10
0.00
 20
0.00
 70
     1
 40
0.00
 41
0.00
  0
VERTEX
  8
_BOARD
 10
67.00
 20
23.50
 40
0.00
 41
0.00
  0
VERTEX
  8
_BOARD
 10
67.00
 20
11.50
  0
VERTEX
  8
_BOARD
 10
67.00
 20
11.50
 40
0.00
 41
0.00
 42
0.414
  0
VERTEX
  8
_BOARD
 10
69.00
 20
9.50
  0
VERTEX
  8
_BOARD
 10
69.00
 20
9.50
 40
0.00
 41
0.00
  0
VERTEX
  8
_BOARD
 10
84.21
 20
9.50
  0
VERTEX
  8
_BOARD
 10
84.21
 20
9.50
 40
0.00
 41
0.00
 42
1.000
  0
VERTEX
  8
_BOARD
 10
84.21
 20
19.50
  0
VERTEX
  8
_BOARD
 10
84.21
 20
19.50
 40
0.00
 41
0.00
  0
VERTEX
  8
_BOARD
 10
81.21
 20
19.50
  0
VERTEX
  8
_BOARD
 10
81.21
 20
19.50
 40
0.00
 41
0.00
 42
-0.414
  0
VERTEX
  8
_BOARD
 10
79.21
 20
21.50
  0
VERTEX
  8
_BOARD
 10
79.21
 20
21.50
 40
0.00
 41
0.00
  0
VERTEX
  8
_BOARD
 10
79.21
 20
82.50
  0
VERTEX
  8
_BOARD
 10
79.21
 20
82.50
 40
0.00
 41
0.00
 42
-0.414
  0
VERTEX
  8
_BOARD
 10
81.21
 20
84.50
  0
VERTEX
  8
_BOARD
 10
81.21
 20
84.50
 40
0.00
 41
0.00
  0
VERTEX
  8
_BOARD
 10
84.21
 20
84.50
  0
VERTEX
  8
_BOARD
 10
84.21
 20
84.50
 40
0.00
 41
0.00
 42
1.000
  0
VERTEX
  8
_BOARD
 10
84.21
 20
94.50
  0
VERTEX
  8
_BOARD
 10
84.21
 20
94.50
 40
0.00
 41
0.00
  0
VERTEX
  8
_BOARD
 10
15.79
 20
94.50
  0
VERTEX
  8
_BOARD
 10
15.79
 20
94.50
 40
0.00
 41
0.00
 42
1.000
  0
VERTEX
  8
_BOARD
 10
15.79
 20
84.50
  0
VERTEX
  8
_BOARD
 10
15.79
 20
84.50
 40
0.00
 41
0.00
  0
VERTEX
  8
_BOARD
 10
18.79
 20
84.50
  0
VERTEX
  8
_BOARD
 10
18.79
 20
84.50
 40
0.00
 41
0.00
 42
-0.414
  0
VERTEX
  8
_BOARD
 10
20.79
 20
82.50
  0
VERTEX
  8
_BOARD
 10
20.79
 20
82.50
 40
0.00
 41
0.00
  0
VERTEX
  8
_BOARD
 10
20.79
 20
21.50
  0
VERTEX
  8
_BOARD
 10
20.79
 20
21.50
 40
0.00
 41
0.00
 42
-0.414
  0
VERTEX
  8
_BOARD
 10
18.79
 20
19.50
  0
VERTEX
  8
_BOARD
 10
18.79
 20
19.50
 40
0.00
 41
0.00
  0
VERTEX
  8
_BOARD
 10
15.79
 20
19.50
  0
VERTEX
  8
_BOARD
 10
15.79
 20
19.50
 40
0.00
 41
0.00
 42
1.000
  0
VERTEX
  8
_BOARD
 10
15.79
 20
9.50
  0
VERTEX
  8
_BOARD
 10
15.79
 20
9.50
 40
0.00
 41
0.00
  0
VERTEX
  8
_BOARD
 10
31.00
 20
9.50
  0
VERTEX
  8
_BOARD
 10
31.00
 20
9.50
 40
0.00
 41
0.00
 42
0.414
  0
VERTEX
  8
_BOARD
 10
33.00
 20
11.50
  0
VERTEX
  8
_BOARD
 10
33.00
 20
11.50
 40
0.00
 41
0.00
  0
VERTEX
  8
_BOARD
 10
33.00
 20
23.50
  0
VERTEX
  8
_BOARD
 10
33.00
 20
23.50
 40
0.00
 41
0.00
 42
-0.414
  0
VERTEX
  8
_BOARD
 10
35.00
 20
25.50
  0
VERTEX
  8
_BOARD
 10
35.00
 20
25.50
 40
0.00
 41
0.00
  0
VERTEX
  8
_BOARD
 10
65.00
 20
25.50
  0
VERTEX
  8
_BOARD
 10
65.00
 20
25.50
 40
0.00
 41
0.00
 42
-0.414
  0
VERTEX
  8
_BOARD
 10
67.00
 20
23.50
 40
0.00
 41
0.00
  0
VERTEX
  8
_BOARD
 10
67.00
 20
23.50
  0
SEQEND
  8
_BOARD
  0
INSERT
  8
_DRILL
  2
_HOLE
 10
46.00
 20
90.00
 41
1.52
 42
1.52
  0
INSERT
  8
_DRILL
  2
_HOLE
 10
41.00
 20
90.00
 41
1.52
 42
1.52
  0
INSERT
  8
_DRILL
  2
_HOLE
 10
58.00
 20
90.00
 41
1.52
 42
1.52
  0
INSERT
  8
_DRILL
  2
_HOLE
 10
53.00
 20
90.00
 41
1.52
 42
1.52
  0
INSERT
  8
_DRILL
  2
_HOLE
 10
28.00
 20
79.62
 41
0.89
 42
0.89
  0
INSERT
  8
_DRILL
  2
_HOLE
 10
28.00
 20
77.08
 41
0.89
 42
0.89
  0
INSERT
  8
_DRILL
  2
_HOLE
 10
28.00
 20
74.54
 41
0.89
 42
0.89
  0
INSERT
  8
_DRILL
  2
_HOLE
 10
28.00
 20
72.00
 41
0.89
 42
0.89
  0
INSERT
  8
_DRILL
  2
_HOLE
 10
28.00
 20
67.62
 41
0.89
 42
0.89
  0
INSERT
  8
_DRILL
  2
_HOLE
 10
28.00
 20
65.08
 41
0.89
 42
0.89
  0
INSERT
  8
_DRILL
  2
_HOLE
 10
28.00
 20
62.54
 41
0.89
 42
0.89
  0
INSERT
  8
_DRILL
  2
_HOLE
 10
28.00
 20
60.00
 41
0.89
 42
0.89
  0
INSERT
  8
_DRILL
  2
_HOLE
 10
28.00
 20
55.62
 41
0.89
 42
0.89
  0
INSERT
  8
_DRILL
  2
_HOLE
 10
28.00
 20
53.08
 41
0.89
 42
0.89
  0
INSERT
  8
_DRILL
  2
_HOLE
 10
28.00
 20
50.54
 41
0.89
 42
0.89
  0
INSERT
  8
_DRILL
  2
_HOLE
 10
28.00
 20
48.00
 41
0.89
 42
0.89
  0
INSERT
  8
_DRILL
  2
_HOLE
 10
28.00
 20
43.62
 41
0.89
 42
0.89
  0
INSERT
  8
_DRILL
  2
_HOLE
 10
28.00
 20
41.08
 41
0.89
 42
0.89
  0
INSERT
  8
_DRILL
  2
_HOLE
 10
28.00
 20
38.54
 41
0.89
 42
0.89
  0
INSERT
  8
_DRILL
  2
_HOLE
 10
28.00
 20
36.00
 41
0.89
 42
0.89
  0
INSERT
  8
_DRILL
  2
_HOLE
 10
72.00
 20
72.38
 41
0.89
 42
0.89
  0
INSERT
  8
_DRILL
  2
_HOLE
 10
72.00
 20
74.92
 41
0.89
 42
0.89
  0
INSERT
  8
_DRILL
  2
_HOLE
 10
72.00
 20
77.46
 41
0.89
 42
0.89
  0
INSERT
  8
_DRILL
  2
_HOLE
 10
72.00
 20
80.00
 41
0.89
 42
0.89
  0
INSERT
  8
_DRILL
  2
_HOLE
 10
72.00
 20
60.38
 41
0.89
 42
0.89
  0
INSERT
  8
_DRILL
  2
_HOLE
 10
72.00
 20
62.92
 41
0.89
 42
0.89
  0
INSERT
  8
_DRILL
  2
_HOLE
 10
72.00
 20
65.46
 41
0.89
 42
0.89
  0
INSERT
  8
_DRILL
  2
_HOLE
 10
72.00
 20
68.00
 41
0.89
 42
0.89
  0
INSERT
  8
_DRILL
  2
_HOLE
 10
72.00
 20
48.38
 41
0.89
 42
0.89
  0
INSERT
  8
_DRILL
  2
_HOLE
 10
72.00
 20
50.92
 41
0.89
 42
0.89
  0
INSERT
  8
_DRILL
  2
_HOLE
 10
72.00
 20
53.46
 41
0.89
 42
0.89
  0
INSERT
  8
_DRILL
  2
_HOLE
 10
72.00
 20
56.00
 41
0.89
 42
0.89
  0
INSERT
  8
_DRILL
  2
_HOLE
 10
72.00
 20
36.38
 41
0.89
 42
0.89
  0
INSERT
  8
_DRILL
  2
_HOLE
 10
72.00
 20
38.92
 41
0.89
 42
0.89
  0
INSERT
  8
_DRILL
  2
_HOLE
 10
72.00
 20
41.46
 41
0.89
 42
0.89
  0
INSERT
  8
_DRILL
  2
_HOLE
 10
72.00
 20
44.00
 41
0.89
 42
0.89
  0
ENDSEC
  0
EOF
