999
DXF file: pcb_dxf.dxf
999
Pro/ENGINEER 2008090 by Parametric Technology Corporation
  0
SECTION
  2
HEADER
  9
$EXTMAX
 10
210.0
 20
297.0
 30
0.0
  9
$EXTMIN
 10
0.0
 20
0.0
 30
0.0
  9
$LIMMIN
 10
0.0
 20
0.0
  9
$LIMMAX
 10
210.0
 20
297.0
  9
$VIEWCTR
 10
105.0
 20
148.5
  9
$VIEWSIZE
 40
297.0
  9
$CLAYER
  8
0
  9
$LTSCALE
 40
19.36
  9
$CELTYPE
  6
BYLAYER
  9
$DIMSCALE
 40
1.0
  9
$DIMASZ
 40
6.0
  9
$DIMEXO
 40
2.2
  9
$DIMDLI
 40
13.376
  9
$DIMEXE
 40
6.336
  9
$DIMCEN
 40
3.168
  9
$DIMLFAC
 40
1.0
  9
$DIMBLK
  1
_FILLED
  9
$DIMTXT
 40
3.0
  9
$PDMODE
 70
3
  9
$PDSIZE
 40
0.3125
  9
$TILEMODE
 70
1
  0
ENDSEC
  0
SECTION
  2
TABLES
  0
TABLE
  2
LTYPE
 70
6
  0
LTYPE
  2
BYBLOCK
 70
0
  3

 72
65
 73
0
 40
0.0
  0
LTYPE
  2
BYLAYER
 70
0
  3

 72
65
 73
0
 40
0.0
  0
LTYPE
  2
CONTINUOUS
 70
64
  3
Solid line
 72
65
 73
0
 40
0.0
  0
LTYPE
  2
CENTER
 70
64
  3
____ _ ____ _ ____ _ ____ _ ____ _ ____ _ ____
 72
65
 73
4
 40
0.6
 49
0.375
 49
-0.075
 49
0.075
 49
-0.075
  0
LTYPE
  2
HIDDEN
 70
64
  3
- - - - - - - - - - - - - - - - - - - -
 72
65
 73
2
 40
0.2
 49
0.1
 49
-0.1
  0
LTYPE
  2
PHANTOM
 70
64
  3
_____ _ _ _____ _ _ _____ _ _ _____
 72
65
 73
6
 40
0.8
 49
0.45
 49
-0.05
 49
0.1
 49
-0.05
 49
0.1
 49
-0.05
  0
LTYPE
  2
DOT
 70
64
  3
. . . . . . . . . . . . . . . . . . . .
 72
65
 73
2
 40
0.2
 49
0.1
 49
-0.1
  0
LTYPE
  2
DASHED
 70
64
  3
- - - - - - - - - - - - - - - - - - - -
 72
65
 73
2
 40
0.2
 49
0.1
 49
-0.1
  0
ENDTAB
  0
TABLE
  2
LAYER
 70
36
  0
LAYER
  2
0
 70
0
 62
7
  6
CONTINUOUS
  0
LAYER
  2
DEFAULT_1
 70
0
 62
7
  6
CENTER
  0
LAYER
  2
DEFAULT_2
 70
0
 62
8
  6
HIDDEN
  0
LAYER
  2
DEFAULT_3
 70
0
 62
7
  6
PHANTOM
  0
LAYER
  2
01___PRT_ALL_DTM_PLN
 70
0
 62
7
  6
CONTINUOUS
  0
LAYER
  2
01___PRT_DEF_DTM_PLN
 70
0
 62
7
  6
CONTINUOUS
  0
LAYER
  2
02___PRT_ALL_AXES
 70
0
 62
7
  6
CONTINUOUS
  0
LAYER
  2
03___PRT_ALL_CURVES
 70
0
 62
7
  6
CONTINUOUS
  0
LAYER
  2
04___PRT_ALL_DTM_PNT
 70
0
 62
7
  6
CONTINUOUS
  0
LAYER
  2
05___PRT_ALL_DTM_CSYS
 70
0
 62
7
  6
CONTINUOUS
  0
LAYER
  2
05___PRT_DEF_DTM_CSYS
 70
0
 62
7
  6
CONTINUOUS
  0
LAYER
  2
06___PRT_ALL_SURFS
 70
0
 62
7
  6
CONTINUOUS
  0
ENDTAB
  0
TABLE
  2
STYLE
 70
1
  0
STYLE
  2
STANDARD
 70
0
 40
0.0
 41
0.8
 50
0.0
 71
0
 42
0.2
  3
txt
  4

  0
STYLE
  2
TEXTSTYLE_1
 70
0
 40
0.0
 41
0.8
 50
0.0
 71
0
 42
0.2
  3
gdt
  4

  0
ENDTAB
  0
ENDSEC
  0
SECTION
  2
BLOCKS
  0
ENDSEC
  0
SECTION
  2
ENTITIES
  0
LINE
  8
0
 62
7
  6
CONTINUOUS
 10
-34.21
 20
-42.5
 11
-19.0
 21
-42.5
  0
LINE
  8
0
 62
7
  6
CONTINUOUS
 10
19.0
 20
-42.5
 11
34.21
 21
-42.5
  0
LINE
  8
0
 62
7
  6
CONTINUOUS
 10
34.21
 20
-32.5
 11
31.21
 21
-32.5
  0
LINE
  8
0
 62
7
  6
CONTINUOUS
 10
-31.21
 20
-32.5
 11
-34.21
 21
-32.5
  0
LINE
  8
0
 62
7
  6
CONTINUOUS
 10
-29.21
 20
-30.5
 11
-29.21
 21
30.5
  0
LINE
  8
0
 62
7
  6
CONTINUOUS
 10
15.0
 20
-26.5
 11
-15.0
 21
-26.5
  0
LINE
  8
0
 62
7
  6
CONTINUOUS
 10
-17.0
 20
-40.5
 11
-17.0
 21
-28.5
  0
LINE
  8
0
 62
7
  6
CONTINUOUS
 10
-15.0
 20
24.5
 11
-15.0
 21
16.5
  0
LINE
  8
0
 62
7
  6
CONTINUOUS
 10
-6.0
 20
16.5
 11
-6.0
 21
24.5
  0
LINE
  8
0
 62
7
  6
CONTINUOUS
 10
-13.0
 20
14.5
 11
-8.0
 21
14.5
  0
LINE
  8
0
 62
7
  6
CONTINUOUS
 10
17.0
 20
-40.5
 11
17.0
 21
-28.5
  0
LINE
  8
0
 62
7
  6
CONTINUOUS
 10
-8.0
 20
26.5
 11
-13.0
 21
26.5
  0
LINE
  8
0
 62
7
  6
CONTINUOUS
 10
29.21
 20
30.5
 11
29.21
 21
-30.5
  0
LINE
  8
0
 62
7
  6
CONTINUOUS
 10
-34.21
 20
32.5
 11
-31.21
 21
32.5
  0
LINE
  8
0
 62
7
  6
CONTINUOUS
 10
31.21
 20
32.5
 11
34.21
 21
32.5
  0
LINE
  8
02___PRT_ALL_AXES
 62
7
  6
CONTINUOUS
 10
34.21
 20
42.5
 11
-34.21
 21
42.5
  0
ARC
  8
02___PRT_ALL_AXES
 62
7
  6
CONTINUOUS
 10
-34.21
 20
-37.5
 40
5.0
 50
90.0
 51
270.0
  0
ARC
  8
02___PRT_ALL_AXES
 62
7
  6
CONTINUOUS
 10
-34.21
 20
37.5
 40
5.0
 50
90.0
 51
270.0
  0
ARC
  8
02___PRT_ALL_AXES
 62
7
  6
CONTINUOUS
 10
34.21
 20
37.5
 40
5.0
 50
270.0
 51
90.0
  0
ARC
  8
02___PRT_ALL_AXES
 62
7
  6
CONTINUOUS
 10
34.21
 20
-37.5
 40
5.0
 50
270.0
 51
90.0
  0
ARC
  8
0
 62
7
  6
CONTINUOUS
 10
19.0
 20
-40.5
 40
2.0
 50
180.0
 51
270.0
  0
ARC
  8
0
 62
7
  6
CONTINUOUS
 10
-19.0
 20
-40.5
 40
2.0
 50
270.0
 51
360.0
  0
ARC
  8
0
 62
7
  6
CONTINUOUS
 10
-15.0
 20
-28.5
 40
2.0
 50
90.0
 51
180.0
  0
ARC
  8
0
 62
7
  6
CONTINUOUS
 10
15.0
 20
-28.5
 40
2.0
 50
0.0
 51
90.0
  0
ARC
  8
0
 62
7
  6
CONTINUOUS
 10
-13.0
 20
16.5
 40
2.0
 50
180.0
 51
270.0
  0
ARC
  8
0
 62
7
  6
CONTINUOUS
 10
-8.0
 20
16.5
 40
2.0
 50
270.0
 51
360.0
  0
ARC
  8
0
 62
7
  6
CONTINUOUS
 10
-8.0
 20
24.5
 40
2.0
 50
0.0
 51
90.0
  0
ARC
  8
0
 62
7
  6
CONTINUOUS
 10
-13.0
 20
24.5
 40
2.0
 50
90.0
 51
180.0
  0
ARC
  8
0
 62
7
  6
CONTINUOUS
 10
-31.21
 20
-30.5
 40
2.0
 50
270.0
 51
360.0
  0
ARC
  8
0
 62
7
  6
CONTINUOUS
 10
-31.21
 20
30.5
 40
2.0
 50
0.0
 51
90.0
  0
ARC
  8
0
 62
7
  6
CONTINUOUS
 10
31.21
 20
30.5
 40
2.0
 50
90.0
 51
180.0
  0
ARC
  8
0
 62
7
  6
CONTINUOUS
 10
31.21
 20
-30.5
 40
2.0
 50
180.0
 51
270.0
  0
CIRCLE
  8
02___PRT_ALL_AXES
 62
7
  6
CONTINUOUS
 10
34.21
 20
-37.5
 40
1.5
  0
CIRCLE
  8
02___PRT_ALL_AXES
 62
7
  6
CONTINUOUS
 10
-34.21
 20
-37.5
 40
1.5
  0
CIRCLE
  8
02___PRT_ALL_AXES
 62
7
  6
CONTINUOUS
 10
-34.21
 20
37.5
 40
1.5
  0
CIRCLE
  8
02___PRT_ALL_AXES
 62
7
  6
CONTINUOUS
 10
34.21
 20
37.5
 40
1.5
  0
CIRCLE
  8
02___PRT_ALL_AXES
 62
7
  6
CONTINUOUS
 10
-25.4
 20
-34.29
 40
1.5
  0
CIRCLE
  8
02___PRT_ALL_AXES
 62
7
  6
CONTINUOUS
 10
25.4
 20
-34.29
 40
1.5
  0
CIRCLE
  8
02___PRT_ALL_AXES
 62
7
  6
CONTINUOUS
 10
25.4
 20
34.29
 40
1.5
  0
CIRCLE
  8
02___PRT_ALL_AXES
 62
7
  6
CONTINUOUS
 10
-25.4
 20
34.29
 40
1.5
  0
CIRCLE
  8
02___PRT_ALL_AXES
 62
7
  6
CONTINUOUS
 10
-10.0
 20
-17.0
 40
1.5
  0
CIRCLE
  8
02___PRT_ALL_AXES
 62
7
  6
CONTINUOUS
 10
15.5
 20
37.5
 40
1.5
  0
ENDSEC
  0
EOF
